<svg xmlns="http://www.w3.org/2000/svg" width="1400" height="760" viewBox="0 0 1400 760">
    <defs><filter id="s"><feDropShadow dx="0" dy="8" stdDeviation="10" flood-color="#35405c" flood-opacity=".08"/></filter>
    <marker id="a" markerWidth="10" markerHeight="10" refX="8" refY="3" orient="auto"><path d="M0,0 L0,6 L9,3 z" fill="#9aa1b2"/></marker></defs>
    <rect width="1400" height="760" rx="28" fill="#fbfbfe"/>
    <text x="70" y="66" font-family="Pretendard,Arial" font-size="28" font-weight="800" fill="#20263a">AI 기반 상품 매칭 Agent</text>
    <text x="70" y="94" font-family="Pretendard,Arial" font-size="14" fill="#697187">검색 후보 축소 → Agent 판단 → 보완 검색 → 결과 검증</text>
    <rect x="52" y="125" width="1296" height="570" rx="26" fill="#fff" stroke="#e9ebf3" filter="url(#s)"/><path d="M180,322 L440,322" stroke="#a5acbb" stroke-width="2" fill="none" marker-end="url(#a)"/><path d="M440,322 L700,322" stroke="#a5acbb" stroke-width="2" fill="none" marker-end="url(#a)"/><path d="M700,322 L960,322" stroke="#a5acbb" stroke-width="2" fill="none" marker-end="url(#a)"/><path d="M960,322 L1220,322" stroke="#a5acbb" stroke-width="2" fill="none" marker-end="url(#a)"/><path d="M1220,322 C1220,452.0 590,452.0 590,582" stroke="#a5acbb" stroke-width="2" fill="none" marker-end="url(#a)"/><path d="M1220,322 C1220,452.0 290,452.0 290,582" stroke="#a5acbb" stroke-width="2" fill="none" marker-end="url(#a)"/><path d="M290,582 C290,452.0 700,452.0 700,322" stroke="#a5acbb" stroke-width="2" fill="none" marker-end="url(#a)"/><path d="M1220,322 L700,322" stroke="#a5acbb" stroke-width="2" fill="none" marker-end="url(#a)"/><path d="M590,582 L890,582" stroke="#a5acbb" stroke-width="2" fill="none" marker-end="url(#a)"/><path d="M1220,360 C1300,472 620,472 700,360" stroke="#7868ee" stroke-width="2.5" stroke-dasharray="8 7" fill="none" marker-end="url(#a)"/><text x="700" y="455" text-anchor="middle" font-family="Pretendard,Arial" font-size="13" font-weight="700" fill="#7868ee">후보 부족·불확실 → 검색 조건 보완</text><text x="700" y="477" text-anchor="middle" font-family="Pretendard,Arial" font-size="12" fill="#9299aa">최대 반복 후 종료</text><g><rect x="70" y="250" width="220" height="110" rx="18" fill="#eeeaff" stroke="#e4e6ef"/>
        <circle cx="94" cy="274" r="7" fill="#7868ee"/><text x="112" y="279" font-family="Pretendard,Arial" font-size="17" font-weight="800" fill="#20263a">주문 파일</text>
        <text x="90" y="307" font-family="Pretendard,Arial" font-size="13" fill="#697187">비정형 상품명</text></g><g><rect x="330" y="250" width="220" height="110" rx="18" fill="#eaf2ff" stroke="#e4e6ef"/>
        <circle cx="354" cy="274" r="7" fill="#7868ee"/><text x="372" y="279" font-family="Pretendard,Arial" font-size="17" font-weight="800" fill="#20263a">FastAPI</text>
        <text x="350" y="307" font-family="Pretendard,Arial" font-size="13" fill="#697187">Job / Item 관리</text></g><g><rect x="590" y="250" width="220" height="110" rx="18" fill="#eaf2ff" stroke="#e4e6ef"/>
        <circle cx="614" cy="274" r="7" fill="#7868ee"/><text x="632" y="279" font-family="Pretendard,Arial" font-size="17" font-weight="800" fill="#20263a">Candidate Search</text>
        <text x="610" y="307" font-family="Pretendard,Arial" font-size="13" fill="#697187">MySQL 상품 마스터<br/>LIKE / FULLTEXT</text></g><g><rect x="850" y="250" width="220" height="110" rx="18" fill="#e8faf4" stroke="#e4e6ef"/>
        <circle cx="874" cy="274" r="7" fill="#7868ee"/><text x="892" y="279" font-family="Pretendard,Arial" font-size="17" font-weight="800" fill="#20263a">RapidFuzz</text>
        <text x="870" y="307" font-family="Pretendard,Arial" font-size="13" fill="#697187">유사도 필터링</text></g><g><rect x="1110" y="250" width="220" height="110" rx="18" fill="#fff0f6" stroke="#e4e6ef"/>
        <circle cx="1134" cy="274" r="7" fill="#7868ee"/><text x="1152" y="279" font-family="Pretendard,Arial" font-size="17" font-weight="800" fill="#20263a">LLM Agent</text>
        <text x="1130" y="307" font-family="Pretendard,Arial" font-size="13" fill="#697187">Bedrock Claude<br/>구조화된 JSON 판단</text></g><g><rect x="180" y="510" width="220" height="110" rx="18" fill="#eeeaff" stroke="#e4e6ef"/>
        <circle cx="204" cy="534" r="7" fill="#7868ee"/><text x="222" y="539" font-family="Pretendard,Arial" font-size="17" font-weight="800" fill="#20263a">MCP Tool Layer</text>
        <text x="200" y="567" font-family="Pretendard,Arial" font-size="13" fill="#697187">사내 DB / 업무 Tool</text></g><g><rect x="480" y="510" width="220" height="110" rx="18" fill="#e8faf4" stroke="#e4e6ef"/>
        <circle cx="504" cy="534" r="7" fill="#7868ee"/><text x="522" y="539" font-family="Pretendard,Arial" font-size="17" font-weight="800" fill="#20263a">Matching Result</text>
        <text x="500" y="567" font-family="Pretendard,Arial" font-size="13" fill="#697187">자동 매칭 / 검토 / 실패</text></g><g><rect x="780" y="510" width="220" height="110" rx="18" fill="#f7f7fc" stroke="#e4e6ef"/>
        <circle cx="804" cy="534" r="7" fill="#7868ee"/><text x="822" y="539" font-family="Pretendard,Arial" font-size="17" font-weight="800" fill="#20263a">Phoenix + Admin</text>
        <text x="800" y="567" font-family="Pretendard,Arial" font-size="13" fill="#697187">Trace · 호출량 · 실행이력</text></g></svg>