<svg xmlns="http://www.w3.org/2000/svg" width="1400" height="760" viewBox="0 0 1400 760">
    <defs><filter id="s"><feDropShadow dx="0" dy="8" stdDeviation="10" flood-color="#35405c" flood-opacity=".08"/></filter>
    <marker id="a" markerWidth="10" markerHeight="10" refX="8" refY="3" orient="auto"><path d="M0,0 L0,6 L9,3 z" fill="#9aa1b2"/></marker></defs>
    <rect width="1400" height="760" rx="28" fill="#fbfbfe"/>
    <text x="70" y="66" font-family="Pretendard,Arial" font-size="28" font-weight="800" fill="#20263a">천마족 키우기</text>
    <text x="70" y="94" font-family="Pretendard,Arial" font-size="14" fill="#697187">전투 상태와 표현 계층을 분리하고 Headless Simulation으로 밸런스 검증</text>
    <rect x="52" y="125" width="1296" height="570" rx="26" fill="#fff" stroke="#e9ebf3" filter="url(#s)"/><path d="M180,322 L440,322" stroke="#a5acbb" stroke-width="2" fill="none" marker-end="url(#a)"/><path d="M440,322 L700,322" stroke="#a5acbb" stroke-width="2" fill="none" marker-end="url(#a)"/><path d="M700,322 C700,452.0 290,452.0 290,582" stroke="#a5acbb" stroke-width="2" fill="none" marker-end="url(#a)"/><path d="M700,322 L1220,322" stroke="#a5acbb" stroke-width="2" fill="none" marker-end="url(#a)"/><path d="M960,322 C960,452.0 290,452.0 290,582" stroke="#a5acbb" stroke-width="2" fill="none" marker-end="url(#a)"/><path d="M960,322 L700,322" stroke="#a5acbb" stroke-width="2" fill="none" marker-end="url(#a)"/><path d="M1220,322 L440,322" stroke="#a5acbb" stroke-width="2" fill="none" marker-end="url(#a)"/><g><rect x="70" y="250" width="220" height="110" rx="18" fill="#eeeaff" stroke="#e4e6ef"/>
        <circle cx="94" cy="274" r="7" fill="#7868ee"/><text x="112" y="279" font-family="Pretendard,Arial" font-size="17" font-weight="800" fill="#20263a">Game Presentation</text>
        <text x="90" y="307" font-family="Pretendard,Arial" font-size="13" fill="#697187">2D Sprite / UI</text></g><g><rect x="330" y="250" width="220" height="110" rx="18" fill="#eeeaff" stroke="#e4e6ef"/>
        <circle cx="354" cy="274" r="7" fill="#7868ee"/><text x="372" y="279" font-family="Pretendard,Arial" font-size="17" font-weight="800" fill="#20263a">Game State</text>
        <text x="350" y="307" font-family="Pretendard,Arial" font-size="13" fill="#697187">영웅 · 스킬 · 스테이지</text></g><g><rect x="590" y="250" width="220" height="110" rx="18" fill="#fff0f6" stroke="#e4e6ef"/>
        <circle cx="614" cy="274" r="7" fill="#7868ee"/><text x="632" y="279" font-family="Pretendard,Arial" font-size="17" font-weight="800" fill="#20263a">Auto Battle</text>
        <text x="610" y="307" font-family="Pretendard,Arial" font-size="13" fill="#697187">전투 오케스트레이션</text></g><g><rect x="850" y="250" width="220" height="110" rx="18" fill="#e8faf4" stroke="#e4e6ef"/>
        <circle cx="874" cy="274" r="7" fill="#7868ee"/><text x="892" y="279" font-family="Pretendard,Arial" font-size="17" font-weight="800" fill="#20263a">Headless Simulation</text>
        <text x="870" y="307" font-family="Pretendard,Arial" font-size="13" fill="#697187">대량 역산 시뮬레이션</text></g><g><rect x="1110" y="250" width="220" height="110" rx="18" fill="#f7f7fc" stroke="#e4e6ef"/>
        <circle cx="1134" cy="274" r="7" fill="#7868ee"/><text x="1152" y="279" font-family="Pretendard,Arial" font-size="17" font-weight="800" fill="#20263a">Save Data</text>
        <text x="1130" y="307" font-family="Pretendard,Arial" font-size="13" fill="#697187">최소 상태 저장<br/>Validation</text></g><g><rect x="180" y="510" width="220" height="110" rx="18" fill="#eaf2ff" stroke="#e4e6ef"/>
        <circle cx="204" cy="534" r="7" fill="#7868ee"/><text x="222" y="539" font-family="Pretendard,Arial" font-size="17" font-weight="800" fill="#20263a">Game Data</text>
        <text x="200" y="567" font-family="Pretendard,Arial" font-size="13" fill="#697187">스탯 · 성장 · 보상</text></g></svg>